<svg width="12" height="6" viewBox="0 0 12 6" fill="none" xmlns="http://www.w3.org/2000/svg">
<path id="Vector" d="M11.9026 1.31632C11.903 1.43561 11.8767 1.55348 11.8256 1.66126C11.7744 1.76904 11.6998 1.864 11.6072 1.93915L6.81619 5.79589C6.67331 5.91333 6.49409 5.97754 6.30914 5.97754C6.12419 5.97754 5.94497 5.91333 5.8021 5.79589L1.01112 1.80341C0.848049 1.66787 0.745502 1.47311 0.726035 1.26196C0.706568 1.05082 0.771775 0.840591 0.90731 0.677525C1.04285 0.514458 1.23761 0.411912 1.44875 0.392445C1.6599 0.372978 1.87012 0.438184 2.03319 0.57372L6.31314 4.143L10.5931 0.693495C10.7103 0.595852 10.853 0.533827 11.0044 0.514759C11.1557 0.495691 11.3094 0.520379 11.4471 0.5859C11.5849 0.651421 11.701 0.755034 11.7817 0.884479C11.8624 1.01392 11.9044 1.16378 11.9026 1.31632Z" fill="black"/>
</svg>
