<svg width="86" height="138" viewBox="0 0 86 138" fill="none" xmlns="http://www.w3.org/2000/svg">
<g opacity="0.5">
<rect x="0.755859" y="0.663086" width="2.01956" height="2.02287" fill="black"/>
<rect x="14.2002" y="0.663086" width="2.01956" height="2.02287" fill="black"/>
<rect x="27.6523" y="0.663086" width="2.01956" height="2.02287" fill="black"/>
<rect x="41.0947" y="0.663086" width="2.01956" height="2.02287" fill="black"/>
<rect x="54.54" y="0.663086" width="2.01956" height="2.02287" fill="black"/>
<rect x="67.9854" y="0.663086" width="2.01956" height="2.02287" fill="black"/>
<rect x="81.4365" y="0.663086" width="2.01956" height="2.02287" fill="black"/>
<rect x="0.755859" y="14.1289" width="2.01956" height="2.02287" fill="black"/>
<rect x="14.2002" y="14.1289" width="2.01956" height="2.02287" fill="black"/>
<rect x="27.6523" y="14.1289" width="2.01956" height="2.02287" fill="black"/>
<rect x="41.0947" y="14.1289" width="2.01956" height="2.02287" fill="black"/>
<rect x="54.54" y="14.1289" width="2.01956" height="2.02287" fill="black"/>
<rect x="67.9854" y="14.1289" width="2.01956" height="2.02287" fill="black"/>
<rect x="81.4365" y="14.1289" width="2.01956" height="2.02287" fill="black"/>
<rect x="0.755859" y="27.6035" width="2.01956" height="2.02287" fill="black"/>
<rect x="14.2002" y="27.6045" width="2.01956" height="2.02287" fill="black"/>
<rect x="27.6523" y="27.6035" width="2.01956" height="2.02287" fill="black"/>
<rect x="41.0957" y="27.6045" width="2.01956" height="2.02287" fill="black"/>
<rect x="54.54" y="27.6045" width="2.01956" height="2.02287" fill="black"/>
<rect x="67.9854" y="27.6045" width="2.01956" height="2.02287" fill="black"/>
<rect x="81.4365" y="27.6045" width="2.01956" height="2.02287" fill="black"/>
<rect x="0.755859" y="41.0693" width="2.01956" height="2.02287" fill="black"/>
<rect x="14.2002" y="41.0693" width="2.01956" height="2.02287" fill="black"/>
<rect x="27.6523" y="41.0693" width="2.01956" height="2.02287" fill="black"/>
<rect x="41.0947" y="41.0693" width="2.01956" height="2.02287" fill="black"/>
<rect x="54.54" y="41.0693" width="2.01956" height="2.02287" fill="black"/>
<rect x="67.9854" y="41.0693" width="2.01956" height="2.02287" fill="black"/>
<rect x="81.4365" y="41.0693" width="2.01956" height="2.02287" fill="black"/>
<rect x="0.755859" y="54.5371" width="2.01956" height="2.02287" fill="black"/>
<rect x="14.2002" y="54.5371" width="2.01956" height="2.02287" fill="black"/>
<rect x="27.6523" y="54.5371" width="2.01956" height="2.02287" fill="black"/>
<rect x="41.0947" y="54.5371" width="2.01956" height="2.02287" fill="black"/>
<rect x="54.54" y="54.5371" width="2.01956" height="2.02287" fill="black"/>
<rect x="67.9854" y="54.5371" width="2.01956" height="2.02287" fill="black"/>
<rect x="81.4365" y="54.5371" width="2.01956" height="2.02287" fill="black"/>
<rect x="0.755859" y="68.0039" width="2.01956" height="2.02287" fill="black"/>
<rect x="14.2002" y="68.0039" width="2.01956" height="2.02287" fill="black"/>
<rect x="27.6523" y="68.0039" width="2.01956" height="2.02287" fill="black"/>
<rect x="41.0947" y="68.0039" width="2.01956" height="2.02287" fill="black"/>
<rect x="54.54" y="68.0039" width="2.01956" height="2.02287" fill="black"/>
<rect x="67.9854" y="68.0039" width="2.01956" height="2.02287" fill="black"/>
<rect x="81.4365" y="68.0039" width="2.01956" height="2.02287" fill="black"/>
<rect x="0.755859" y="81.4766" width="2.01956" height="2.02287" fill="black"/>
<rect x="14.2002" y="81.4766" width="2.01956" height="2.02287" fill="black"/>
<rect x="27.6523" y="81.4766" width="2.01956" height="2.02287" fill="black"/>
<rect x="41.0947" y="81.4766" width="2.01956" height="2.02287" fill="black"/>
<rect x="54.54" y="81.4766" width="2.01956" height="2.02287" fill="black"/>
<rect x="67.9854" y="81.4766" width="2.01956" height="2.02287" fill="black"/>
<rect x="81.4365" y="81.4766" width="2.01956" height="2.02287" fill="black"/>
<rect x="0.755859" y="94.9434" width="2.01956" height="2.02287" fill="black"/>
<rect x="14.2002" y="94.9453" width="2.01956" height="2.02287" fill="black"/>
<rect x="27.6523" y="94.9453" width="2.01956" height="2.02287" fill="black"/>
<rect x="41.0947" y="94.9453" width="2.01956" height="2.02287" fill="black"/>
<rect x="54.54" y="94.9453" width="2.01956" height="2.02287" fill="black"/>
<rect x="67.9854" y="94.9453" width="2.01956" height="2.02287" fill="black"/>
<rect x="81.4365" y="94.9453" width="2.01956" height="2.02287" fill="black"/>
<rect x="0.755859" y="108.411" width="2.01956" height="2.02287" fill="black"/>
<rect x="14.2002" y="108.411" width="2.01956" height="2.02287" fill="black"/>
<rect x="27.6523" y="108.411" width="2.01956" height="2.02287" fill="black"/>
<rect x="41.0947" y="108.411" width="2.01956" height="2.02287" fill="black"/>
<rect x="54.54" y="108.411" width="2.01956" height="2.02287" fill="black"/>
<rect x="67.9854" y="108.411" width="2.01956" height="2.02287" fill="black"/>
<rect x="81.4365" y="108.411" width="2.01956" height="2.02287" fill="black"/>
<rect x="0.755859" y="121.878" width="2.01956" height="2.02287" fill="black"/>
<rect x="14.2002" y="121.878" width="2.01956" height="2.02287" fill="black"/>
<rect x="27.6523" y="121.878" width="2.01956" height="2.02287" fill="black"/>
<rect x="41.0947" y="121.878" width="2.01956" height="2.02287" fill="black"/>
<rect x="54.54" y="121.878" width="2.01956" height="2.02287" fill="black"/>
<rect x="67.9854" y="121.878" width="2.01956" height="2.02287" fill="black"/>
<rect x="81.4365" y="121.878" width="2.01956" height="2.02287" fill="black"/>
<rect x="0.755859" y="135.35" width="2.01956" height="2.02287" fill="black"/>
<rect x="14.2002" y="135.351" width="2.01956" height="2.02287" fill="black"/>
<rect x="27.6523" y="135.351" width="2.01956" height="2.02287" fill="black"/>
<rect x="41.0947" y="135.351" width="2.01956" height="2.02287" fill="black"/>
<rect x="54.54" y="135.351" width="2.01956" height="2.02287" fill="black"/>
<rect x="67.9854" y="135.351" width="2.01956" height="2.02287" fill="black"/>
<rect x="81.4365" y="135.351" width="2.01956" height="2.02287" fill="black"/>
</g>
</svg>
