<svg width="94" height="97" viewBox="0 0 94 97" fill="none" xmlns="http://www.w3.org/2000/svg">
<path d="M11.9205 31.1217C23.8565 22.1825 37.7534 16.6965 52.4812 20.6917C65.7746 24.298 74.1441 35.6278 65.1806 49.6392C60.9376 56.272 51.9034 60.9146 44.8019 57.1364C36.8902 52.9271 43.1261 42.3031 48.191 39.2393C60.0204 32.0832 76.671 35.4094 84.8607 49.3087C94.5592 65.7688 78.1566 73.9617 78.1454 73.8281" stroke="black" stroke-width="2.40297" stroke-miterlimit="1.5" stroke-linecap="round" stroke-linejoin="round"/>
<path d="M14.4954 13.4032C14.9287 15.1275 14.6785 16.8536 14.5082 18.5914C13.9495 24.2978 11.7125 30.2222 7.69872 33.9648C12.9804 31.649 20.5576 30.6404 25.3548 34.7054" stroke="black" stroke-width="2.40297" stroke-miterlimit="1.5" stroke-linecap="round" stroke-linejoin="round"/>
</svg>
