<svg width="18" height="17" viewBox="0 0 18 17" fill="none" xmlns="http://www.w3.org/2000/svg">
<g id="Group 127">
<circle id="Ellipse 30" cx="9.02521" cy="8.54133" r="8.06281" fill="white"/>
<path id="Vector" fill-rule="evenodd" clip-rule="evenodd" d="M9.02598 1.65723C5.22379 1.65723 2.14136 4.73966 2.14136 8.54184C2.14136 12.344 5.22379 15.4265 9.02598 15.4265C12.8282 15.4265 15.9106 12.344 15.9106 8.54184C15.9106 4.73966 12.8282 1.65723 9.02598 1.65723ZM12.0101 7.37772C12.0651 7.31491 12.1069 7.24174 12.1332 7.16252C12.1594 7.08331 12.1696 6.99964 12.163 6.91644C12.1565 6.83324 12.1333 6.7522 12.095 6.67807C12.0567 6.60395 12.0039 6.53824 11.9398 6.48481C11.8757 6.43138 11.8015 6.39132 11.7217 6.36697C11.6419 6.34262 11.558 6.33449 11.4749 6.34304C11.3919 6.35159 11.3115 6.37666 11.2383 6.41677C11.1651 6.45688 11.1007 6.51122 11.0488 6.5766L8.35754 9.80549L6.96497 8.41229C6.84693 8.29828 6.68883 8.2352 6.52473 8.23662C6.36063 8.23805 6.20365 8.30387 6.08761 8.41991C5.97157 8.53596 5.90574 8.69293 5.90432 8.85703C5.90289 9.02114 5.96598 9.17923 6.07999 9.29728L7.95761 11.1749C8.0191 11.2364 8.09273 11.2843 8.17379 11.3158C8.25486 11.3472 8.34158 11.3614 8.42843 11.3574C8.51529 11.3535 8.60037 11.3315 8.67825 11.2928C8.75613 11.2542 8.8251 11.1997 8.88077 11.133L12.0101 7.37772Z" fill="#007AFF"/>
</g>
</svg>
