<svg width="242" height="26" viewBox="0 0 242 26" fill="none" xmlns="http://www.w3.org/2000/svg">
<path opacity="0.7" d="M203.804 20.6055V18.402H199.116V17.3644L203.779 11.0615H204.983V17.3644H206.226V18.402H204.983V20.6055H203.804ZM200.064 17.8128L199.884 17.3644H203.804V12.112L204.176 12.2145L200.064 17.8128ZM208.374 20.6055L211.666 16.3139L211.897 16.3395C211.769 16.5103 211.628 16.647 211.474 16.7495C211.32 16.8434 211.15 16.9117 210.962 16.9544C210.782 16.9971 210.586 17.0185 210.372 17.0185C209.809 17.0185 209.301 16.8904 208.848 16.6342C208.404 16.3694 208.049 16.0107 207.785 15.5581C207.528 15.0969 207.4 14.5717 207.4 13.9824C207.4 13.3931 207.537 12.8678 207.81 12.4067C208.084 11.9455 208.459 11.5825 208.938 11.3178C209.416 11.0445 209.954 10.9078 210.552 10.9078C211.167 10.9078 211.709 11.0445 212.179 11.3178C212.657 11.5825 213.033 11.954 213.306 12.4323C213.579 12.902 213.716 13.4443 213.716 14.0592C213.716 14.3923 213.678 14.7211 213.601 15.0457C213.524 15.3702 213.4 15.699 213.229 16.0321C213.067 16.3651 212.849 16.711 212.576 17.0697L209.886 20.6055H208.374ZM210.552 15.9168C210.919 15.9168 211.244 15.8356 211.525 15.6734C211.816 15.5026 212.042 15.272 212.204 14.9816C212.367 14.6827 212.448 14.3496 212.448 13.9824C212.448 13.5981 212.362 13.2607 212.192 12.9703C212.029 12.68 211.807 12.4494 211.525 12.2786C211.244 12.1077 210.919 12.0223 210.552 12.0223C210.193 12.0223 209.873 12.1077 209.591 12.2786C209.309 12.4494 209.083 12.68 208.912 12.9703C208.75 13.2607 208.669 13.5981 208.669 13.9824C208.669 14.3496 208.75 14.6827 208.912 14.9816C209.074 15.272 209.296 15.5026 209.578 15.6734C209.869 15.8356 210.193 15.9168 210.552 15.9168ZM219.053 20.7592C218.293 20.7592 217.627 20.5542 217.055 20.1443C216.491 19.7258 216.051 19.1493 215.735 18.4149C215.419 17.6718 215.261 16.8093 215.261 15.8271C215.261 14.845 215.419 13.9866 215.735 13.2522C216.051 12.5091 216.491 11.9327 217.055 11.5227C217.619 11.1128 218.28 10.9078 219.041 10.9078C219.801 10.9078 220.463 11.1128 221.026 11.5227C221.59 11.9327 222.03 12.5091 222.346 13.2522C222.67 13.9866 222.832 14.845 222.832 15.8271C222.832 16.8093 222.674 17.6718 222.358 18.4149C222.042 19.1579 221.598 19.7343 221.026 20.1443C220.463 20.5542 219.805 20.7592 219.053 20.7592ZM219.053 19.5934C219.566 19.5934 220.01 19.4397 220.386 19.1322C220.761 18.8163 221.052 18.3764 221.257 17.8128C221.47 17.2491 221.577 16.5872 221.577 15.8271C221.577 15.067 221.47 14.4051 221.257 13.8415C221.052 13.2778 220.757 12.8422 220.373 12.5348C219.997 12.2273 219.553 12.0736 219.041 12.0736C218.528 12.0736 218.084 12.2273 217.708 12.5348C217.332 12.8422 217.038 13.2778 216.824 13.8415C216.619 14.4051 216.517 15.067 216.517 15.8271C216.517 16.5787 216.619 17.2363 216.824 17.7999C217.038 18.3636 217.332 18.8034 217.708 19.1194C218.093 19.4354 218.541 19.5934 219.053 19.5934ZM228.324 20.7592C227.563 20.7592 226.897 20.5542 226.325 20.1443C225.761 19.7258 225.322 19.1493 225.006 18.4149C224.69 17.6718 224.532 16.8093 224.532 15.8271C224.532 14.845 224.69 13.9866 225.006 13.2522C225.322 12.5091 225.761 11.9327 226.325 11.5227C226.889 11.1128 227.551 10.9078 228.311 10.9078C229.071 10.9078 229.733 11.1128 230.296 11.5227C230.86 11.9327 231.3 12.5091 231.616 13.2522C231.94 13.9866 232.103 14.845 232.103 15.8271C232.103 16.8093 231.945 17.6718 231.629 18.4149C231.313 19.1579 230.869 19.7343 230.296 20.1443C229.733 20.5542 229.075 20.7592 228.324 20.7592ZM228.324 19.5934C228.836 19.5934 229.28 19.4397 229.656 19.1322C230.032 18.8163 230.322 18.3764 230.527 17.8128C230.74 17.2491 230.847 16.5872 230.847 15.8271C230.847 15.067 230.74 14.4051 230.527 13.8415C230.322 13.2778 230.027 12.8422 229.643 12.5348C229.267 12.2273 228.823 12.0736 228.311 12.0736C227.798 12.0736 227.354 12.2273 226.978 12.5348C226.603 12.8422 226.308 13.2778 226.094 13.8415C225.89 14.4051 225.787 15.067 225.787 15.8271C225.787 16.5787 225.89 17.2363 226.094 17.7999C226.308 18.3636 226.603 18.8034 226.978 19.1194C227.363 19.4354 227.811 19.5934 228.324 19.5934ZM236.39 20.6055V17.9537H233.738V16.8391H236.39V14.2002H237.504V16.8391H240.143V17.9537H237.504V20.6055H236.39Z" fill="#334155"/>
<path d="M25.8851 8.56836H35.8481V10.4231H31.9253V20.8786H29.7751V10.4231H25.8687L25.8851 8.56836ZM35.4214 11.966H37.2597V13.6894H37.2925C37.3582 13.4432 37.4731 13.2134 37.6372 12.9836C37.8013 12.7538 37.9983 12.5405 38.2445 12.3599C38.4743 12.1629 38.7369 12.0152 39.0324 11.9003C39.3114 11.7854 39.6068 11.7198 39.9023 11.7198C40.1321 11.7198 40.2962 11.7362 40.3783 11.7362C40.4604 11.7526 40.5588 11.769 40.6409 11.769V13.6566C40.5096 13.6238 40.3619 13.6073 40.2142 13.5909C40.0664 13.5745 39.9351 13.5581 39.7874 13.5581C39.4591 13.5581 39.1473 13.6237 38.8518 13.7551C38.5564 13.8864 38.3102 14.0833 38.0804 14.3295C37.867 14.5922 37.6865 14.904 37.5551 15.2815C37.4238 15.659 37.3582 16.1022 37.3582 16.5946V20.8293H35.3885L35.4214 11.966ZM49.6684 20.8786H47.7316V19.6311H47.6988C47.4526 20.0907 47.0915 20.4354 46.6155 20.7144C46.1395 20.9935 45.6471 21.1248 45.1546 21.1248C43.9893 21.1248 43.1358 20.8457 42.6105 20.2549C42.0853 19.6804 41.8227 18.794 41.8227 17.6287V11.966H43.7923V17.4317C43.7923 18.2196 43.94 18.7776 44.2519 19.0895C44.5473 19.4178 44.9741 19.5819 45.5157 19.5819C45.9261 19.5819 46.2708 19.5162 46.5498 19.3849C46.8288 19.2536 47.0586 19.0895 47.2228 18.8761C47.4033 18.6627 47.5182 18.4001 47.6003 18.1047C47.6823 17.8092 47.7152 17.4809 47.7152 17.1363V11.966H49.6848V20.8786H49.6684ZM53.0168 18.0226C53.0824 18.5971 53.2958 18.991 53.6733 19.2372C54.0508 19.467 54.5104 19.5819 55.0356 19.5819C55.2162 19.5819 55.4296 19.5655 55.6594 19.5327C55.8892 19.4998 56.1189 19.4506 56.3159 19.3685C56.5293 19.2864 56.6934 19.1716 56.8247 19.0074C56.956 18.8433 57.0217 18.6463 57.0053 18.4001C56.9889 18.1539 56.9068 17.9405 56.7262 17.7764C56.5457 17.6123 56.3323 17.4974 56.0697 17.3825C55.8071 17.284 55.4952 17.2019 55.1505 17.1363C54.8059 17.0706 54.4612 16.9885 54.1001 16.9065C53.739 16.8244 53.3779 16.7259 53.0332 16.611C52.6885 16.4961 52.3931 16.3484 52.114 16.135C51.8514 15.9381 51.6216 15.6919 51.4739 15.38C51.3098 15.0682 51.2277 14.707 51.2277 14.2475C51.2277 13.7551 51.3426 13.3611 51.5888 13.0329C51.8186 12.7046 52.1304 12.442 52.4915 12.245C52.8526 12.048 53.263 11.9003 53.7061 11.8183C54.1493 11.7362 54.5761 11.7034 54.97 11.7034C55.4296 11.7034 55.8727 11.7526 56.2831 11.8511C56.6934 11.9496 57.0873 12.0973 57.4156 12.3271C57.7603 12.5405 58.0393 12.8359 58.2527 13.1806C58.4825 13.5253 58.6138 13.952 58.6795 14.4444H56.6278C56.5293 13.9684 56.3159 13.6566 55.9876 13.4924C55.6429 13.3283 55.2654 13.2462 54.8223 13.2462C54.691 13.2462 54.5104 13.2627 54.3299 13.2791C54.1329 13.3119 53.9688 13.3447 53.7882 13.4104C53.6241 13.476 53.4764 13.5745 53.3615 13.6894C53.2466 13.8043 53.1809 13.9684 53.1809 14.1654C53.1809 14.4116 53.263 14.5922 53.4271 14.7399C53.5912 14.8876 53.8046 15.0025 54.0837 15.1174C54.3463 15.2159 54.6581 15.2979 55.0028 15.3636C55.3475 15.4292 55.7086 15.5113 56.0697 15.5934C56.4308 15.6755 56.7755 15.7739 57.1202 15.8888C57.4649 16.0037 57.7767 16.1514 58.0393 16.3648C58.302 16.5618 58.5317 16.808 58.6959 17.1034C58.86 17.3989 58.9421 17.7764 58.9421 18.2031C58.9421 18.7284 58.8272 19.1716 58.581 19.5491C58.3348 19.9102 58.0229 20.222 57.6454 20.4518C57.2679 20.6816 56.8247 20.8457 56.3651 20.9606C55.8892 21.0591 55.4296 21.1248 54.97 21.1248C54.4119 21.1248 53.8867 21.0591 53.4107 20.9278C52.9347 20.7965 52.5079 20.5995 52.1633 20.3533C51.8186 20.0907 51.5395 19.7789 51.3426 19.3849C51.1456 19.0074 51.0307 18.5478 51.0143 18.0062H53.0004V18.0226H53.0168ZM59.5001 11.966H60.9938V9.27414H62.9634V11.9496H64.7361V13.4104H62.9634V18.1703C62.9634 18.3837 62.9798 18.5478 62.9962 18.712C63.0127 18.8597 63.0619 18.991 63.1111 19.0895C63.1768 19.188 63.2753 19.27 63.3902 19.3193C63.5215 19.3685 63.6856 19.4013 63.9154 19.4013C64.0467 19.4013 64.1944 19.4013 64.3257 19.3849C64.4571 19.3685 64.6048 19.3521 64.7361 19.3193V20.8457C64.5227 20.8786 64.3093 20.895 64.096 20.9114C63.8826 20.9442 63.6856 20.9442 63.4558 20.9442C62.9306 20.9442 62.5203 20.895 62.2084 20.7965C61.8965 20.698 61.6503 20.5503 61.4698 20.3697C61.2892 20.1728 61.1743 19.943 61.1087 19.664C61.043 19.3849 61.0102 19.0402 60.9938 18.6791V13.4268H59.5001V11.9332V11.966ZM66.1148 11.966H67.9696V13.1806H68.0024C68.2814 12.6553 68.6589 12.2942 69.1514 12.0645C69.6438 11.8347 70.169 11.7198 70.7599 11.7198C71.4657 11.7198 72.073 11.8347 72.5982 12.0973C73.1234 12.3435 73.5502 12.6718 73.8949 13.1149C74.2396 13.5417 74.5022 14.0505 74.6663 14.625C74.8305 15.1995 74.9289 15.8232 74.9289 16.4633C74.9289 17.0706 74.8469 17.6451 74.6992 18.2031C74.535 18.7612 74.3052 19.27 73.9934 19.6968C73.6815 20.1235 73.2876 20.4682 72.7952 20.7308C72.3028 20.9935 71.7447 21.1248 71.0882 21.1248C70.8091 21.1248 70.5137 21.0919 70.2346 21.0427C69.9556 20.9935 69.6766 20.9114 69.414 20.7965C69.1514 20.6816 68.9051 20.5339 68.6918 20.3533C68.462 20.1728 68.2814 19.9594 68.1337 19.7296H68.1009V24.1777H66.1312V11.966H66.1148ZM72.9921 16.4305C72.9921 16.0366 72.9429 15.6426 72.828 15.2651C72.7295 14.8876 72.5654 14.5593 72.352 14.2639C72.1386 13.9684 71.876 13.7386 71.5806 13.5581C71.2687 13.3775 70.9076 13.2955 70.5137 13.2955C69.693 13.2955 69.0693 13.5745 68.6425 14.149C68.2322 14.7235 68.0188 15.4949 68.0188 16.4469C68.0188 16.9065 68.0681 17.3168 68.1829 17.6943C68.2978 18.0718 68.4456 18.4001 68.6754 18.6791C68.8887 18.9582 69.1514 19.1716 69.4632 19.3357C69.7751 19.4998 70.1198 19.5819 70.5301 19.5819C70.9897 19.5819 71.3508 19.4834 71.6626 19.3029C71.9745 19.1223 72.2207 18.8761 72.4341 18.5971C72.631 18.3016 72.7788 17.9734 72.8608 17.5958C72.9429 17.2019 72.9921 16.8244 72.9921 16.4305ZM76.4554 8.56836H78.425V10.4231H76.4554V8.56836ZM76.4554 11.966H78.425V20.8786H76.4554V11.966ZM80.1813 8.56836H82.1509V20.8786H80.1813V8.56836ZM88.1583 21.1248C87.4525 21.1248 86.8124 21.0099 86.2543 20.7637C85.6963 20.5175 85.2367 20.2056 84.8428 19.7953C84.4653 19.3849 84.1698 18.8761 83.9728 18.3016C83.7759 17.7272 83.661 17.087 83.661 16.4141C83.661 15.7411 83.7595 15.1174 83.9728 14.5429C84.1698 13.9684 84.4653 13.476 84.8428 13.0493C85.2203 12.6389 85.6963 12.3107 86.2543 12.0809C86.8124 11.8511 87.4525 11.7198 88.1583 11.7198C88.8641 11.7198 89.5042 11.8347 90.0623 12.0809C90.6204 12.3107 91.0799 12.6389 91.4739 13.0493C91.8514 13.4596 92.1468 13.9684 92.3438 14.5429C92.5407 15.1174 92.6556 15.7411 92.6556 16.4141C92.6556 17.1034 92.5572 17.7272 92.3438 18.3016C92.1304 18.8761 91.8514 19.3685 91.4739 19.7953C91.0964 20.2056 90.6204 20.5339 90.0623 20.7637C89.5042 20.9935 88.8805 21.1248 88.1583 21.1248ZM88.1583 19.5655C88.5851 19.5655 88.979 19.467 89.2909 19.2864C89.6191 19.1059 89.8653 18.8597 90.0787 18.5642C90.2921 18.2688 90.4398 17.9241 90.5383 17.563C90.6368 17.1855 90.686 16.808 90.686 16.4141C90.686 16.0366 90.6368 15.659 90.5383 15.2815C90.4398 14.904 90.2921 14.5757 90.0787 14.2803C89.8653 13.9849 89.6027 13.7551 89.2909 13.5745C88.9626 13.394 88.5851 13.2955 88.1583 13.2955C87.7316 13.2955 87.3376 13.394 87.0258 13.5745C86.6975 13.7551 86.4513 14.0013 86.2379 14.2803C86.0246 14.5757 85.8768 14.904 85.7783 15.2815C85.6799 15.659 85.6306 16.0366 85.6306 16.4141C85.6306 16.808 85.6799 17.1855 85.7783 17.563C85.8768 17.9405 86.0246 18.2688 86.2379 18.5642C86.4513 18.8597 86.7139 19.1059 87.0258 19.2864C87.3541 19.4834 87.7316 19.5655 88.1583 19.5655ZM93.2465 11.966H94.7402V9.27414H96.7098V11.9496H98.4825V13.4104H96.7098V18.1703C96.7098 18.3837 96.7262 18.5478 96.7426 18.712C96.7591 18.8597 96.8083 18.991 96.8575 19.0895C96.9232 19.188 97.0217 19.27 97.1366 19.3193C97.2679 19.3685 97.432 19.4013 97.6618 19.4013C97.7931 19.4013 97.9408 19.4013 98.0721 19.3849C98.2035 19.3685 98.3512 19.3521 98.4825 19.3193V20.8457C98.2691 20.8786 98.0557 20.895 97.8424 20.9114C97.629 20.9442 97.432 20.9442 97.2022 20.9442C96.677 20.9442 96.2666 20.895 95.9548 20.7965C95.6429 20.698 95.3967 20.5503 95.2162 20.3697C95.0356 20.1728 94.9207 19.943 94.8551 19.664C94.7894 19.3849 94.7566 19.0402 94.7402 18.6791V13.4268H93.2465V11.9332V11.966Z" fill="black"/>
<path d="M23.5868 8.56791H14.5758L11.8019 0L9.01156 8.56791L0.000488281 8.55149L7.28813 13.8531L4.49782 22.421L11.7855 17.1194L19.0731 22.421L16.2992 13.8531L23.5868 8.56791Z" fill="#00B67A"/>
<path d="M16.9233 15.7913L16.2996 13.8545L11.8022 17.1208L16.9233 15.7913Z" fill="#005128"/>
<g opacity="0.8">
<path d="M120.066 9.40134C120.323 8.60971 121.443 8.60971 121.7 9.40134L122.619 12.2298C122.734 12.5839 123.064 12.8235 123.436 12.8235H126.41C127.243 12.8235 127.589 13.8887 126.915 14.3779L124.509 16.126C124.208 16.3448 124.082 16.7327 124.197 17.0867L125.116 19.9152C125.374 20.7068 124.467 21.3651 123.794 20.8759L121.388 19.1278C121.087 18.909 120.679 18.909 120.378 19.1278L117.972 20.8759C117.298 21.3651 116.392 20.7068 116.65 19.9152L117.569 17.0867C117.684 16.7327 117.558 16.3448 117.257 16.126L114.85 14.3779C114.177 13.8887 114.523 12.8235 115.356 12.8235H118.33C118.702 12.8235 119.032 12.5839 119.147 12.2298L120.066 9.40134Z" fill="#F59E0B"/>
<path d="M136.045 9.40134C136.302 8.60971 137.422 8.60971 137.68 9.40134L138.599 12.2298C138.714 12.5839 139.044 12.8235 139.416 12.8235H142.39C143.222 12.8235 143.568 13.8887 142.895 14.3779L140.489 16.126C140.188 16.3448 140.062 16.7327 140.177 17.0867L141.096 19.9152C141.353 20.7068 140.447 21.3651 139.774 20.8759L137.368 19.1278C137.066 18.909 136.659 18.909 136.357 19.1278L133.951 20.8759C133.278 21.3651 132.372 20.7068 132.629 19.9152L133.548 17.0867C133.663 16.7327 133.537 16.3448 133.236 16.126L130.83 14.3779C130.157 13.8887 130.503 12.8235 131.335 12.8235H134.309C134.681 12.8235 135.011 12.5839 135.126 12.2298L136.045 9.40134Z" fill="#F59E0B"/>
<path d="M152.023 9.40134C152.281 8.60971 153.4 8.60971 153.658 9.40134L154.577 12.2298C154.692 12.5839 155.022 12.8235 155.394 12.8235H158.368C159.2 12.8235 159.546 13.8887 158.873 14.3779L156.467 16.126C156.166 16.3448 156.04 16.7327 156.155 17.0867L157.074 19.9152C157.331 20.7068 156.425 21.3651 155.752 20.8759L153.346 19.1278C153.044 18.909 152.637 18.909 152.335 19.1278L149.929 20.8759C149.256 21.3651 148.35 20.7068 148.607 19.9152L149.526 17.0867C149.641 16.7327 149.515 16.3448 149.214 16.126L146.808 14.3779C146.135 13.8887 146.481 12.8235 147.313 12.8235H150.287C150.659 12.8235 150.989 12.5839 151.104 12.2298L152.023 9.40134Z" fill="#F59E0B"/>
<path d="M168.004 9.40134C168.261 8.60971 169.381 8.60971 169.638 9.40134L170.557 12.2298C170.672 12.5839 171.002 12.8235 171.374 12.8235H174.348C175.181 12.8235 175.527 13.8887 174.853 14.3779L172.447 16.126C172.146 16.3448 172.02 16.7327 172.135 17.0867L173.054 19.9152C173.312 20.7068 172.405 21.3651 171.732 20.8759L169.326 19.1278C169.025 18.909 168.617 18.909 168.316 19.1278L165.91 20.8759C165.236 21.3651 164.33 20.7068 164.588 19.9152L165.507 17.0867C165.622 16.7327 165.496 16.3448 165.195 16.126L162.788 14.3779C162.115 13.8887 162.461 12.8235 163.294 12.8235H166.268C166.64 12.8235 166.97 12.5839 167.085 12.2298L168.004 9.40134Z" fill="#F59E0B"/>
<path d="M183.983 9.40134C184.24 8.60971 185.36 8.60971 185.617 9.40134L186.536 12.2298C186.651 12.5839 186.981 12.8235 187.353 12.8235H190.327C191.16 12.8235 191.506 13.8887 190.832 14.3779L188.426 16.126C188.125 16.3448 187.999 16.7327 188.114 17.0867L189.033 19.9152C189.291 20.7068 188.384 21.3651 187.711 20.8759L185.305 19.1278C185.004 18.909 184.596 18.909 184.295 19.1278L181.889 20.8759C181.215 21.3651 180.309 20.7068 180.567 19.9152L181.486 17.0867C181.601 16.7327 181.475 16.3448 181.174 16.126L178.767 14.3779C178.094 13.8887 178.44 12.8235 179.273 12.8235H182.247C182.619 12.8235 182.949 12.5839 183.064 12.2298L183.983 9.40134Z" fill="#F59E0B"/>
</g>
</svg>
