<svg xmlns="http://www.w3.org/2000/svg" width="38" height="37" viewBox="0 0 38 37" fill="none">
  <path fill-rule="evenodd" clip-rule="evenodd" d="M5.33398 7.80173C5.33398 4.44435 8.05568 1.72266 11.4131 1.72266H24.0927C25.705 1.72266 27.2512 2.36313 28.3912 3.50317L30.9093 6.02121C32.0493 7.16126 32.6898 8.70749 32.6898 10.3198V29.0785C32.6898 32.4358 29.9681 35.1575 26.6107 35.1575H11.4131C8.05568 35.1575 5.33398 32.4358 5.33398 29.0785V7.80173ZM29.6503 12.361V29.0785C29.6503 30.7572 28.2894 32.118 26.6107 32.118H11.4131C9.73436 32.118 8.37352 30.7572 8.37352 29.0785V7.80173C8.37352 6.12304 9.73437 4.76219 11.4131 4.76219H22.0514V7.80173C22.0514 10.3198 24.0927 12.361 26.6107 12.361H29.6503ZM29.4817 9.32149C29.3324 8.89231 29.0874 8.49789 28.76 8.17048L26.242 5.65245C25.9146 5.32504 25.5201 5.08004 25.091 4.93079V7.80173C25.091 8.64107 25.7714 9.32149 26.6107 9.32149H29.4817Z" fill="#141416"/>
  <path d="M18.4309 13.9962C18.2517 14.0703 18.0837 14.1803 17.938 14.326L13.3787 18.8853C12.7852 19.4788 12.7852 20.4411 13.3787 21.0346C13.9722 21.6281 14.9345 21.6281 15.528 21.0346L17.4929 19.0697V26.039C17.4929 26.8783 18.1733 27.5588 19.0127 27.5588C19.852 27.5588 20.5324 26.8783 20.5324 26.039V19.0697L22.4973 21.0346C23.0908 21.6281 24.0531 21.6281 24.6466 21.0346C25.2401 20.4411 25.2401 19.4788 24.6466 18.8853L20.0873 14.326C19.6395 13.8782 18.9818 13.7683 18.4309 13.9962Z" fill="#141416"/>
</svg>